<?xml version="1.0" encoding="UTF-8"?>
<!DOCTYPE svg PUBLIC "-//W3C//DTD SVG 1.1//EN" "http://www.w3.org/Graphics/SVG/1.1/DTD/svg11.dtd">
<svg xmlns="http://www.w3.org/2000/svg" version="1.1" width="178px" height="175px" style="shape-rendering:geometricPrecision; text-rendering:geometricPrecision; image-rendering:optimizeQuality; fill-rule:evenodd; clip-rule:evenodd" xmlns:xlink="http://www.w3.org/1999/xlink">
<g><path style="opacity:0.004" fill="#fefffe" d="M 171.5,11.5 C 172.833,12.1667 172.833,12.1667 171.5,11.5 Z"/></g>
<g><path style="opacity:0.004" fill="#fefffe" d="M 164.5,15.5 C 165.833,16.1667 165.833,16.1667 164.5,15.5 Z"/></g>
<g><path style="opacity:1" fill="#a3d7df" d="M 114.5,109.5 C 114.823,102.978 114.49,96.6446 113.5,90.5C 110.942,77.2767 102.942,69.9434 89.5,68.5C 84.3595,67.5119 79.0262,67.1786 73.5,67.5C 73.3335,56.495 73.5002,45.495 74,34.5C 80.9907,20.7885 91.4907,17.2885 105.5,24C 108.731,26.5673 111.231,29.734 113,33.5C 114.11,44.6718 114.944,55.8385 115.5,67C 126.146,67.9832 136.812,68.6498 147.5,69C 158.677,73.8499 163.177,82.3499 161,94.5C 158.86,101.974 154.026,106.807 146.5,109C 135.839,109.5 125.172,109.667 114.5,109.5 Z"/></g>
<g><path style="opacity:1" fill="#5ba1b7" d="M 73.5,67.5 C 79.0262,67.1786 84.3595,67.5119 89.5,68.5C 84.1667,68.5 78.8333,68.5 73.5,68.5C 70.4287,82.826 74.0953,94.826 84.5,104.5C 82.549,104.773 81.049,104.107 80,102.5C 78.082,103.542 76.2487,104.708 74.5,106C 76.556,106.311 78.556,106.811 80.5,107.5C 81.086,107.291 81.586,106.957 82,106.5C 87.8562,110.379 87.5228,111.379 81,109.5C 80.1475,111.125 79.1475,111.458 78,110.5C 77.5001,122.495 77.3335,134.495 77.5,146.5C 80.2469,146.187 82.9135,146.52 85.5,147.5C 83.2549,148.208 81.2549,149.208 79.5,150.5C 76.8361,148.516 75.1695,145.849 74.5,142.5C 74.1793,131.252 74.5126,120.085 75.5,109C 66.5545,107.917 57.5545,107.084 48.5,106.5C 48.1131,105.28 47.2798,104.613 46,104.5C 44.1246,106.178 41.958,107.178 39.5,107.5C 34.6474,106.64 31.3141,103.973 29.5,99.5C 26.31,91.0666 27.1433,83.0666 32,75.5C 35.148,74.2886 37.648,72.2886 39.5,69.5C 40.6085,68.71 41.9419,68.21 43.5,68C 53.4944,67.5002 63.4944,67.3335 73.5,67.5 Z"/></g>
<g><path style="opacity:0.984" fill="#6597a7" d="M 39.5,69.5 C 37.648,72.2886 35.148,74.2886 32,75.5C 27.1433,83.0666 26.31,91.0666 29.5,99.5C 23.7422,90.066 24.7422,81.2327 32.5,73C 34.5766,71.295 36.91,70.1283 39.5,69.5 Z"/></g>
<g><path style="opacity:1" fill="#3a7d9a" d="M 89.5,68.5 C 102.942,69.9434 110.942,77.2767 113.5,90.5C 113.5,96.8333 113.5,103.167 113.5,109.5C 103.235,110.737 93.5683,109.07 84.5,104.5C 74.0953,94.826 70.4287,82.826 73.5,68.5C 78.8333,68.5 84.1667,68.5 89.5,68.5 Z"/></g>
<g><path style="opacity:1" fill="#5ba1b8" d="M 84.5,104.5 C 93.5683,109.07 103.235,110.737 113.5,109.5C 113.688,121.563 113.021,133.563 111.5,145.5C 110.581,148.089 108.914,150.089 106.5,151.5C 102.141,153.26 97.6412,154.593 93,155.5C 89.3355,155 85.8355,154 82.5,152.5C 80.9731,152.573 79.9731,151.906 79.5,150.5C 81.2549,149.208 83.2549,148.208 85.5,147.5C 82.9135,146.52 80.2469,146.187 77.5,146.5C 77.3335,134.495 77.5001,122.495 78,110.5C 79.1475,111.458 80.1475,111.125 81,109.5C 87.5228,111.379 87.8562,110.379 82,106.5C 81.586,106.957 81.086,107.291 80.5,107.5C 78.556,106.811 76.556,106.311 74.5,106C 76.2487,104.708 78.082,103.542 80,102.5C 81.049,104.107 82.549,104.773 84.5,104.5 Z"/></g>
<g><path style="opacity:0.988" fill="#6299ab" d="M 74.5,142.5 C 73.5054,131.679 73.1721,120.679 73.5,109.5C 63.1613,109.666 52.828,109.5 42.5,109C 41.2625,108.768 40.2625,108.268 39.5,107.5C 41.958,107.178 44.1246,106.178 46,104.5C 47.2798,104.613 48.1131,105.28 48.5,106.5C 57.5545,107.084 66.5545,107.917 75.5,109C 74.5126,120.085 74.1793,131.252 74.5,142.5 Z"/></g>
<g><path style="opacity:0.004" fill="#fefffe" d="M 5.5,114.5 C 6.83333,115.167 6.83333,115.167 5.5,114.5 Z"/></g>
<g><path style="opacity:0.447" fill="#699cab" d="M 113.5,90.5 C 114.49,96.6446 114.823,102.978 114.5,109.5C 114.666,119.506 114.5,129.506 114,139.5C 113.76,141.852 112.927,143.852 111.5,145.5C 113.021,133.563 113.688,121.563 113.5,109.5C 113.5,103.167 113.5,96.8333 113.5,90.5 Z"/></g>
<g><path style="opacity:0.973" fill="#6399a3" d="M 106.5,151.5 C 100.29,156.596 93.2898,157.762 85.5,155C 84.0577,154.623 83.0577,153.79 82.5,152.5C 85.8355,154 89.3355,155 93,155.5C 97.6412,154.593 102.141,153.26 106.5,151.5 Z"/></g>
</svg>
