<?xml version="1.0" encoding="UTF-8"?>
<!DOCTYPE svg PUBLIC "-//W3C//DTD SVG 1.1//EN" "http://www.w3.org/Graphics/SVG/1.1/DTD/svg11.dtd">
<svg xmlns="http://www.w3.org/2000/svg" version="1.1" width="500px" height="151px" style="shape-rendering:geometricPrecision; text-rendering:geometricPrecision; image-rendering:optimizeQuality; fill-rule:evenodd; clip-rule:evenodd" xmlns:xlink="http://www.w3.org/1999/xlink">
<g><path style="opacity:0.004" fill="#fefffe" d="M 164.5,1.5 C 165.833,2.16667 165.833,2.16667 164.5,1.5 Z"/></g>
<g><path style="opacity:0.004" fill="#fefffe" d="M 395.5,5.5 C 396.833,6.16667 396.833,6.16667 395.5,5.5 Z"/></g>
<g><path style="opacity:0.004" fill="#fefffe" d="M 412.5,7.5 C 413.833,8.16667 413.833,8.16667 412.5,7.5 Z"/></g>
<g><path style="opacity:1" fill="#a3d7df" d="M 126.5,54.5 C 123.813,54.3359 121.146,54.5026 118.5,55C 127.5,55.3333 136.5,55.6667 145.5,56C 146.551,57.3848 147.884,58.3848 149.5,59C 149.043,59.414 148.709,59.914 148.5,60.5C 150.167,61.6667 151.833,62.8333 153.5,64C 152.448,65.1192 151.281,65.6192 150,65.5C 147.7,63.9335 145.2,62.7668 142.5,62C 134.997,62.1299 127.831,60.9632 121,58.5C 117.629,59.9075 114.129,60.4075 110.5,60C 110.833,59 111.167,58 111.5,57C 109.272,56.1799 107.272,56.5132 105.5,58C 107.609,59.1411 109.442,60.6411 111,62.5C 112.45,66.9566 114.117,71.2899 116,75.5C 116.245,79.8532 116.245,84.1866 116,88.5C 117.43,88.6938 118.93,88.6938 120.5,88.5C 121.724,86.1725 121.724,83.8392 120.5,81.5C 122.756,80.5791 123.756,78.9124 123.5,76.5C 124.833,76.5 126.167,76.5 127.5,76.5C 127.5,77.8333 127.5,79.1667 127.5,80.5C 132.544,80.1725 137.544,80.5059 142.5,81.5C 137.356,82.0489 132.356,82.8823 127.5,84C 128,84.5 128.5,85 129,85.5C 133,85.5 137,85.5 141,85.5C 142.558,83.2324 144.724,82.0657 147.5,82C 146.209,78.9746 146.876,78.6413 149.5,81C 148.57,82.1939 147.903,83.5272 147.5,85C 153.289,90.6066 151.955,93.2732 143.5,93C 135.47,93.7711 127.47,93.6045 119.5,92.5C 117.923,94.1844 116.257,94.5177 114.5,93.5C 114.822,87.642 114.489,81.9753 113.5,76.5C 111.522,65.0201 104.855,57.8535 93.5,55C 86.8417,54.5004 80.175,54.3337 73.5,54.5C 73.5,54.1667 73.5,53.8333 73.5,53.5C 73.3335,42.495 73.5002,31.495 74,20.5C 80.9907,6.78852 91.4907,3.28852 105.5,10C 109.894,13.0684 112.728,17.235 114,22.5C 114.333,32.5 114.667,42.5 115,52.5C 118.935,53.1378 122.769,53.8045 126.5,54.5 Z"/></g>
<g><path style="opacity:0.004" fill="#fefffe" d="M 428.5,12.5 C 429.833,13.1667 429.833,13.1667 428.5,12.5 Z"/></g>
<g><path style="opacity:0.004" fill="#fefffe" d="M 285.5,23.5 C 286.833,24.1667 286.833,24.1667 285.5,23.5 Z"/></g>
<g><path style="opacity:1" fill="#3c7a95" d="M 202.5,32.5 C 207.436,32.3105 211.602,33.9772 215,37.5C 223.277,30.2252 230.277,31.2252 236,40.5C 236.5,48.8267 236.666,57.16 236.5,65.5C 233.5,65.5 230.5,65.5 227.5,65.5C 227.666,58.825 227.5,52.1583 227,45.5C 225.334,42.6212 222.834,41.7879 219.5,43C 218.299,43.9025 217.465,45.0692 217,46.5C 216.5,52.8246 216.334,59.1579 216.5,65.5C 213.5,65.5 210.5,65.5 207.5,65.5C 207.666,58.825 207.5,52.1583 207,45.5C 205.334,42.6212 202.834,41.7879 199.5,43C 198.107,44.1711 197.273,45.6711 197,47.5C 196.501,53.4908 196.334,59.4908 196.5,65.5C 193.5,65.5 190.5,65.5 187.5,65.5C 187.5,54.8333 187.5,44.1667 187.5,33.5C 190.5,33.5 193.5,33.5 196.5,33.5C 196.351,34.552 196.517,35.552 197,36.5C 198.812,35.0229 200.645,33.6896 202.5,32.5 Z"/></g>
<g><path style="opacity:0.957" fill="#3d7a95" d="M 398.5,32.5 C 399.833,32.5 401.167,32.5 402.5,32.5C 402.665,36.1817 402.499,39.8484 402,43.5C 397.881,42.0555 394.881,43.3889 393,47.5C 392.501,53.4908 392.334,59.4908 392.5,65.5C 389.167,65.5 385.833,65.5 382.5,65.5C 382.5,54.8333 382.5,44.1667 382.5,33.5C 385.833,33.5 389.167,33.5 392.5,33.5C 392.351,34.552 392.517,35.552 393,36.5C 394.812,35.0229 396.645,33.6896 398.5,32.5 Z"/></g>
<g><path style="opacity:1" fill="#3d7a94" d="M 254.5,32.5 C 266.078,32.4121 272.744,38.0788 274.5,49.5C 274.43,50.7716 274.097,51.9383 273.5,53C 266.167,53.3333 258.833,53.6667 251.5,54C 256.594,58.464 261.927,58.6307 267.5,54.5C 269.358,56.5241 271.025,58.6908 272.5,61C 265.973,66.5224 258.639,67.8558 250.5,65C 241.121,58.4619 238.954,49.9619 244,39.5C 246.998,36.2623 250.498,33.9289 254.5,32.5 Z M 255.5,41.5 C 258.765,41.2991 261.431,42.4657 263.5,45C 259.5,45.6667 255.5,45.6667 251.5,45C 252.731,43.5952 254.064,42.4286 255.5,41.5 Z"/></g>
<g><path style="opacity:1" fill="#3c7a96" d="M 359.5,32.5 C 367.03,32.0109 372.53,35.0109 376,41.5C 376.5,49.4931 376.666,57.4931 376.5,65.5C 372.649,66.0291 369.149,65.3625 366,63.5C 360.032,67.7943 354.365,67.4609 349,62.5C 346.3,56.7333 347.467,51.9 352.5,48C 357.238,46.6627 361.905,45.3294 366.5,44C 365.471,42.3016 363.971,41.4683 362,41.5C 359.416,41.9596 357.083,42.9596 355,44.5C 349.576,42.5502 348.742,39.7168 352.5,36C 354.925,34.7874 357.259,33.6207 359.5,32.5 Z M 361.5,52.5 C 363.167,52.5 364.833,52.5 366.5,52.5C 365.877,57.2881 363.21,59.1214 358.5,58C 357.978,57.4387 357.645,56.772 357.5,56C 358.347,54.2294 359.68,53.0627 361.5,52.5 Z"/></g>
<g><path style="opacity:0.004" fill="#fefffe" d="M 440.5,41.5 C 441.833,42.1667 441.833,42.1667 440.5,41.5 Z"/></g>
<g><path style="opacity:1" fill="#3c7b96" d="M 301.5,19.5 C 304.5,19.5 307.5,19.5 310.5,19.5C 310.5,34.8333 310.5,50.1667 310.5,65.5C 307.5,65.5 304.5,65.5 301.5,65.5C 301.649,64.448 301.483,63.448 301,62.5C 292.63,68.5713 285.297,67.5713 279,59.5C 274.047,49.0942 276.214,40.5942 285.5,34C 291.441,31.6454 296.608,32.812 301,37.5C 301.499,31.5092 301.666,25.5092 301.5,19.5 Z M 292.5,41.5 C 300.189,42.8807 302.689,47.2141 300,54.5C 295.375,58.6459 291.041,58.3125 287,53.5C 285.393,47.7212 287.227,43.7212 292.5,41.5 Z"/></g>
<g><path style="opacity:1" fill="#3c7a96" d="M 417.5,32.5 C 429.078,32.4121 435.744,38.0788 437.5,49.5C 437.43,50.7716 437.097,51.9383 436.5,53C 429.167,53.3333 421.833,53.6667 414.5,54C 419.594,58.464 424.927,58.6307 430.5,54.5C 432.358,56.5241 434.025,58.6908 435.5,61C 428.973,66.5224 421.639,67.8558 413.5,65C 404.121,58.4619 401.954,49.9619 407,39.5C 409.998,36.2623 413.498,33.9289 417.5,32.5 Z M 418.5,41.5 C 421.765,41.2991 424.431,42.4657 426.5,45C 422.5,45.6667 418.5,45.6667 414.5,45C 415.731,43.5952 417.064,42.4286 418.5,41.5 Z"/></g>
<g><path style="opacity:1" fill="#5ca0b6" d="M 73.5,53.5 C 73.5,53.8333 73.5,54.1667 73.5,54.5C 70.4287,68.826 74.0953,80.826 84.5,90.5C 82.549,90.7733 81.049,90.1066 80,88.5C 78.5806,89.4601 77.0806,90.2935 75.5,91C 71.1523,91.5735 66.819,92.2401 62.5,93C 66.9177,93.2077 71.251,93.8744 75.5,95C 74.5126,106.085 74.1793,117.252 74.5,128.5C 73.5054,117.679 73.1721,106.679 73.5,95.5C 62.0898,95.9334 50.7564,95.4334 39.5,94C 28.1977,88.5611 24.031,79.7277 27,67.5C 29.1667,61.3333 33.3333,57.1667 39.5,55C 50.7702,53.5907 62.1035,53.0907 73.5,53.5 Z"/></g>
<g><path style="opacity:1" fill="#a3d7de" d="M 126.5,54.5 C 133.508,54.3337 140.508,54.5004 147.5,55C 158.677,59.8499 163.177,68.3499 161,80.5C 158.86,87.9737 154.026,92.807 146.5,95C 135.839,95.4998 125.172,95.6665 114.5,95.5C 114.5,94.8333 114.5,94.1667 114.5,93.5C 116.257,94.5177 117.923,94.1844 119.5,92.5C 127.47,93.6045 135.47,93.7711 143.5,93C 151.955,93.2732 153.289,90.6066 147.5,85C 147.903,83.5272 148.57,82.1939 149.5,81C 146.876,78.6413 146.209,78.9746 147.5,82C 144.724,82.0657 142.558,83.2324 141,85.5C 137,85.5 133,85.5 129,85.5C 128.5,85 128,84.5 127.5,84C 132.356,82.8823 137.356,82.0489 142.5,81.5C 137.544,80.5059 132.544,80.1725 127.5,80.5C 127.5,79.1667 127.5,77.8333 127.5,76.5C 126.167,76.5 124.833,76.5 123.5,76.5C 123.756,78.9124 122.756,80.5791 120.5,81.5C 121.724,83.8392 121.724,86.1725 120.5,88.5C 118.93,88.6938 117.43,88.6938 116,88.5C 116.245,84.1866 116.245,79.8532 116,75.5C 114.117,71.2899 112.45,66.9566 111,62.5C 109.442,60.6411 107.609,59.1411 105.5,58C 107.272,56.5132 109.272,56.1799 111.5,57C 111.167,58 110.833,59 110.5,60C 114.129,60.4075 117.629,59.9075 121,58.5C 127.831,60.9632 134.997,62.1299 142.5,62C 145.2,62.7668 147.7,63.9335 150,65.5C 151.281,65.6192 152.448,65.1192 153.5,64C 151.833,62.8333 150.167,61.6667 148.5,60.5C 148.709,59.914 149.043,59.414 149.5,59C 147.884,58.3848 146.551,57.3848 145.5,56C 136.5,55.6667 127.5,55.3333 118.5,55C 121.146,54.5026 123.813,54.3359 126.5,54.5 Z"/></g>
<g><path style="opacity:1" fill="#3c7a95" d="M 329.5,32.5 C 336.673,31.8597 342.34,34.3597 346.5,40C 344.65,42.0176 342.65,43.8509 340.5,45.5C 333.009,39.6098 327.676,41.1098 324.5,50C 328.001,58.5004 333.167,59.6671 340,53.5C 342.167,55.6667 344.333,57.8333 346.5,60C 336.856,68.7863 327.356,68.6196 318,59.5C 312.601,46.3175 316.434,37.3175 329.5,32.5 Z"/></g>
<g><path style="opacity:1" fill="#3a7d9a" d="M 73.5,54.5 C 80.175,54.3337 86.8417,54.5004 93.5,55C 104.855,57.8535 111.522,65.0201 113.5,76.5C 113.5,82.8333 113.5,89.1667 113.5,95.5C 103.235,96.7367 93.5683,95.07 84.5,90.5C 74.0953,80.826 70.4287,68.826 73.5,54.5 Z"/></g>
<g><path style="opacity:0.004" fill="#fefffe" d="M 308.5,69.5 C 309.833,70.1667 309.833,70.1667 308.5,69.5 Z"/></g>
<g><path style="opacity:0.004" fill="#fefffe" d="M 253.5,74.5 C 254.833,75.1667 254.833,75.1667 253.5,74.5 Z"/></g>
<g><path style="opacity:0.004" fill="#fefffe" d="M 366.5,86.5 C 367.833,87.1667 367.833,87.1667 366.5,86.5 Z"/></g>
<g><path style="opacity:1" fill="#5ca1b7" d="M 113.5,76.5 C 114.489,81.9753 114.822,87.642 114.5,93.5C 114.5,94.1667 114.5,94.8333 114.5,95.5C 114.666,105.506 114.5,115.506 114,125.5C 109.467,139.685 99.9665,144.852 85.5,141C 79.8561,138.526 76.1895,134.359 74.5,128.5C 74.1793,117.252 74.5126,106.085 75.5,95C 71.251,93.8744 66.9177,93.2077 62.5,93C 66.819,92.2401 71.1523,91.5735 75.5,91C 77.0806,90.2935 78.5806,89.4601 80,88.5C 81.049,90.1066 82.549,90.7733 84.5,90.5C 93.5683,95.07 103.235,96.7367 113.5,95.5C 113.5,89.1667 113.5,82.8333 113.5,76.5 Z"/></g>
<g><path style="opacity:0.004" fill="#fefffe" d="M 210.5,88.5 C 211.833,89.1667 211.833,89.1667 210.5,88.5 Z"/></g>
<g><path style="opacity:1" fill="#3c7b96" d="M 225.5,76.5 C 228.833,76.5 232.167,76.5 235.5,76.5C 235.334,82.1764 235.501,87.8431 236,93.5C 242.949,87.7527 249.282,88.4194 255,95.5C 256.414,104.418 256.914,113.418 256.5,122.5C 253.5,122.5 250.5,122.5 247.5,122.5C 247.666,116.491 247.499,110.491 247,104.5C 245.923,99.8848 243.09,98.3848 238.5,100C 237.299,100.903 236.465,102.069 236,103.5C 235.5,109.825 235.334,116.158 235.5,122.5C 232.167,122.5 228.833,122.5 225.5,122.5C 225.5,107.167 225.5,91.8333 225.5,76.5 Z"/></g>
<g><path style="opacity:0.004" fill="#fefffe" d="M 454.5,89.5 C 455.833,90.1667 455.833,90.1667 454.5,89.5 Z"/></g>
<g><path style="opacity:1" fill="#3c7a95" d="M 335.5,89.5 C 340.34,89.2226 344.34,90.8893 347.5,94.5C 356.994,86.6965 364.16,88.3631 369,99.5C 369.5,107.159 369.666,114.826 369.5,122.5C 366.167,122.5 362.833,122.5 359.5,122.5C 359.666,115.492 359.5,108.492 359,101.5C 355.661,98.7006 352.661,99.0339 350,102.5C 349.5,109.158 349.334,115.825 349.5,122.5C 346.167,122.5 342.833,122.5 339.5,122.5C 339.666,115.492 339.5,108.492 339,101.5C 334.493,98.3006 331.326,99.3006 329.5,104.5C 329.655,110.338 329.655,116.338 329.5,122.5C 326.167,122.5 322.833,122.5 319.5,122.5C 319.5,111.833 319.5,101.167 319.5,90.5C 322.833,90.5 326.167,90.5 329.5,90.5C 329.351,91.552 329.517,92.552 330,93.5C 331.5,91.5313 333.333,90.198 335.5,89.5 Z"/></g>
<g><path style="opacity:0.004" fill="#fefffe" d="M 5.5,100.5 C 6.83333,101.167 6.83333,101.167 5.5,100.5 Z"/></g>
<g><path style="opacity:1" fill="#3d7a95" d="M 312.5,89.5 C 313.833,89.5 315.167,89.5 316.5,89.5C 316.665,93.1817 316.499,96.8484 316,100.5C 312.347,99.144 309.347,100.144 307,103.5C 306.5,109.825 306.334,116.158 306.5,122.5C 303.167,122.5 299.833,122.5 296.5,122.5C 296.5,111.833 296.5,101.167 296.5,90.5C 299.833,90.5 303.167,90.5 306.5,90.5C 306.351,91.552 306.517,92.552 307,93.5C 308.812,92.0229 310.645,90.6896 312.5,89.5 Z"/></g>
<g><path style="opacity:0.999" fill="#3d7a96" d="M 436.5,90.5 C 440.167,90.5 443.833,90.5 447.5,90.5C 449.556,97.1683 451.722,103.835 454,110.5C 456.468,103.905 458.635,97.2386 460.5,90.5C 464.182,90.3347 467.848,90.5014 471.5,91C 466.481,104.208 461.314,117.374 456,130.5C 451.915,136.246 446.582,137.913 440,135.5C 439.179,132.446 439.345,129.446 440.5,126.5C 444.465,127.851 447.132,126.517 448.5,122.5C 444.691,111.738 440.691,101.071 436.5,90.5 Z"/></g>
<g><path style="opacity:1" fill="#3c7a97" d="M 421.5,89.5 C 428.316,89.0771 433.65,91.5771 437.5,97C 436.372,99.296 434.705,101.129 432.5,102.5C 426.351,96.5074 421.184,97.1741 417,104.5C 416.344,112.175 419.844,115.341 427.5,114C 429.09,112.954 430.59,111.787 432,110.5C 439.783,116.178 438.95,120.344 429.5,123C 413.152,124.318 405.985,116.818 408,100.5C 410.616,94.3723 415.116,90.7057 421.5,89.5 Z"/></g>
<g><path style="opacity:0.999" fill="#3c7a95" d="M 273.5,89.5 C 279.983,89.0449 285.15,91.3783 289,96.5C 290.41,105.084 290.91,113.75 290.5,122.5C 286.649,123.029 283.149,122.362 280,120.5C 273.993,124.787 268.326,124.454 263,119.5C 259.895,112.549 261.728,107.383 268.5,104C 272.677,103.421 276.677,102.421 280.5,101C 276.592,97.7578 272.758,97.9244 269,101.5C 265.183,100.085 263.683,97.585 264.5,94C 267.324,91.9212 270.324,90.4212 273.5,89.5 Z M 274.5,109.5 C 276.604,109.201 278.604,109.534 280.5,110.5C 279.686,113.575 277.686,115.242 274.5,115.5C 270.641,113.678 270.641,111.678 274.5,109.5 Z"/></g>
<g><path style="opacity:0.982" fill="#3b7a96" d="M 385.5,89.5 C 391.694,89.0004 396.861,91.0004 401,95.5C 402.443,104.392 402.943,113.392 402.5,122.5C 399.5,122.5 396.5,122.5 393.5,122.5C 393.649,121.448 393.483,120.448 393,119.5C 389.257,123.259 384.757,124.426 379.5,123C 372.457,118.112 371.79,112.445 377.5,106C 382.461,104.08 387.461,102.413 392.5,101C 391.471,99.3016 389.971,98.4683 388,98.5C 385.416,98.9596 383.083,99.9596 381,101.5C 375.576,99.5502 374.742,96.7168 378.5,93C 380.925,91.7874 383.259,90.6207 385.5,89.5 Z M 392.5,108.5 C 393.153,111.058 392.153,113.225 389.5,115C 387.559,115.743 385.726,115.576 384,114.5C 383.316,113.216 383.483,112.049 384.5,111C 387.31,110.218 389.977,109.384 392.5,108.5 Z"/></g>
<g><path style="opacity:1" fill="#3d7b96" d="M 205.5,88.5 C 219.886,92.9409 224.386,102.274 219,116.5C 212.617,124.464 205.284,125.464 197,119.5C 196.501,125.157 196.334,130.824 196.5,136.5C 193.5,136.5 190.5,136.5 187.5,136.5C 187.5,121.167 187.5,105.833 187.5,90.5C 190.5,90.5 193.5,90.5 196.5,90.5C 196.343,91.8734 196.51,93.2068 197,94.5C 199.637,92.109 202.47,90.109 205.5,88.5 Z M 202.5,98.5 C 210.687,99.5399 213.187,103.873 210,111.5C 203.373,116.375 198.873,114.875 196.5,107C 197.174,103.17 199.174,100.336 202.5,98.5 Z"/></g>
<g><path style="opacity:0.004" fill="#fefffe" d="M 312.5,125.5 C 313.833,126.167 313.833,126.167 312.5,125.5 Z"/></g>
<g><path style="opacity:0.004" fill="#fefffe" d="M 271.5,135.5 C 272.833,136.167 272.833,136.167 271.5,135.5 Z"/></g>
<g><path style="opacity:0.004" fill="#fefffe" d="M 334.5,137.5 C 335.833,138.167 335.833,138.167 334.5,137.5 Z"/></g>
<g><path style="opacity:0.004" fill="#fefffe" d="M 349.5,137.5 C 350.833,138.167 350.833,138.167 349.5,137.5 Z"/></g>
<g><path style="opacity:0.004" fill="#fefffe" d="M 474.5,144.5 C 475.833,145.167 475.833,145.167 474.5,144.5 Z"/></g>
</svg>
